<?xml version="1.0" encoding="utf-8"?>
<svg xmlns="http://www.w3.org/2000/svg" xmlns:xlink="http://www.w3.org/1999/xlink" style="margin: auto; background: none; display: block; shape-rendering: auto;" width="364px" height="364px" viewBox="0 0 100 100" preserveAspectRatio="xMidYMid">
<g transform="rotate(0 50 50)">
  <rect x="49" y="24.5" rx="0" ry="0" width="2" height="9" fill="#f47e60">
    <animate attributeName="opacity" values="1;0" keyTimes="0;1" dur="2s" begin="-1.8888888888888888s" repeatCount="indefinite"></animate>
  </rect>
</g><g transform="rotate(20 50 50)">
  <rect x="49" y="24.5" rx="0" ry="0" width="2" height="9" fill="#f47e60">
    <animate attributeName="opacity" values="1;0" keyTimes="0;1" dur="2s" begin="-1.7777777777777777s" repeatCount="indefinite"></animate>
  </rect>
</g><g transform="rotate(40 50 50)">
  <rect x="49" y="24.5" rx="0" ry="0" width="2" height="9" fill="#f47e60">
    <animate attributeName="opacity" values="1;0" keyTimes="0;1" dur="2s" begin="-1.6666666666666667s" repeatCount="indefinite"></animate>
  </rect>
</g><g transform="rotate(60 50 50)">
  <rect x="49" y="24.5" rx="0" ry="0" width="2" height="9" fill="#f47e60">
    <animate attributeName="opacity" values="1;0" keyTimes="0;1" dur="2s" begin="-1.5555555555555556s" repeatCount="indefinite"></animate>
  </rect>
</g><g transform="rotate(80 50 50)">
  <rect x="49" y="24.5" rx="0" ry="0" width="2" height="9" fill="#f47e60">
    <animate attributeName="opacity" values="1;0" keyTimes="0;1" dur="2s" begin="-1.4444444444444444s" repeatCount="indefinite"></animate>
  </rect>
</g><g transform="rotate(100 50 50)">
  <rect x="49" y="24.5" rx="0" ry="0" width="2" height="9" fill="#f47e60">
    <animate attributeName="opacity" values="1;0" keyTimes="0;1" dur="2s" begin="-1.3333333333333333s" repeatCount="indefinite"></animate>
  </rect>
</g><g transform="rotate(120 50 50)">
  <rect x="49" y="24.5" rx="0" ry="0" width="2" height="9" fill="#f47e60">
    <animate attributeName="opacity" values="1;0" keyTimes="0;1" dur="2s" begin="-1.2222222222222223s" repeatCount="indefinite"></animate>
  </rect>
</g><g transform="rotate(140 50 50)">
  <rect x="49" y="24.5" rx="0" ry="0" width="2" height="9" fill="#f47e60">
    <animate attributeName="opacity" values="1;0" keyTimes="0;1" dur="2s" begin="-1.1111111111111112s" repeatCount="indefinite"></animate>
  </rect>
</g><g transform="rotate(160 50 50)">
  <rect x="49" y="24.5" rx="0" ry="0" width="2" height="9" fill="#f47e60">
    <animate attributeName="opacity" values="1;0" keyTimes="0;1" dur="2s" begin="-1s" repeatCount="indefinite"></animate>
  </rect>
</g><g transform="rotate(180 50 50)">
  <rect x="49" y="24.5" rx="0" ry="0" width="2" height="9" fill="#f47e60">
    <animate attributeName="opacity" values="1;0" keyTimes="0;1" dur="2s" begin="-0.8888888888888888s" repeatCount="indefinite"></animate>
  </rect>
</g><g transform="rotate(200 50 50)">
  <rect x="49" y="24.5" rx="0" ry="0" width="2" height="9" fill="#f47e60">
    <animate attributeName="opacity" values="1;0" keyTimes="0;1" dur="2s" begin="-0.7777777777777778s" repeatCount="indefinite"></animate>
  </rect>
</g><g transform="rotate(220 50 50)">
  <rect x="49" y="24.5" rx="0" ry="0" width="2" height="9" fill="#f47e60">
    <animate attributeName="opacity" values="1;0" keyTimes="0;1" dur="2s" begin="-0.6666666666666666s" repeatCount="indefinite"></animate>
  </rect>
</g><g transform="rotate(240 50 50)">
  <rect x="49" y="24.5" rx="0" ry="0" width="2" height="9" fill="#f47e60">
    <animate attributeName="opacity" values="1;0" keyTimes="0;1" dur="2s" begin="-0.5555555555555556s" repeatCount="indefinite"></animate>
  </rect>
</g><g transform="rotate(260 50 50)">
  <rect x="49" y="24.5" rx="0" ry="0" width="2" height="9" fill="#f47e60">
    <animate attributeName="opacity" values="1;0" keyTimes="0;1" dur="2s" begin="-0.4444444444444444s" repeatCount="indefinite"></animate>
  </rect>
</g><g transform="rotate(280 50 50)">
  <rect x="49" y="24.5" rx="0" ry="0" width="2" height="9" fill="#f47e60">
    <animate attributeName="opacity" values="1;0" keyTimes="0;1" dur="2s" begin="-0.3333333333333333s" repeatCount="indefinite"></animate>
  </rect>
</g><g transform="rotate(300 50 50)">
  <rect x="49" y="24.5" rx="0" ry="0" width="2" height="9" fill="#f47e60">
    <animate attributeName="opacity" values="1;0" keyTimes="0;1" dur="2s" begin="-0.2222222222222222s" repeatCount="indefinite"></animate>
  </rect>
</g><g transform="rotate(320 50 50)">
  <rect x="49" y="24.5" rx="0" ry="0" width="2" height="9" fill="#f47e60">
    <animate attributeName="opacity" values="1;0" keyTimes="0;1" dur="2s" begin="-0.1111111111111111s" repeatCount="indefinite"></animate>
  </rect>
</g><g transform="rotate(340 50 50)">
  <rect x="49" y="24.5" rx="0" ry="0" width="2" height="9" fill="#f47e60">
    <animate attributeName="opacity" values="1;0" keyTimes="0;1" dur="2s" begin="0s" repeatCount="indefinite"></animate>
  </rect>
</g>
<!-- [ldio] generated by https://loading.io/ --></svg>